<?xml version="1.0" encoding="UTF-8"?>
<svg version="1.1" xmlns="http://www.w3.org/2000/svg" width="600" height="600">
<path d="M0 0 C1.01545898 0.19867676 2.03091797 0.39735352 3.07714844 0.60205078 C52.9758035 10.58327711 96.53871388 34.88580573 133 70 C133.7940625 70.7528125 134.588125 71.505625 135.40625 72.28125 C140.75597303 77.46114055 145.38660506 83.16405541 150 89 C151.19109375 90.48306641 151.19109375 90.48306641 152.40625 91.99609375 C176.96982035 123.12808718 193.28629604 159.4743462 201.25 198.25 C201.40114258 198.98033447 201.55228516 199.71066895 201.70800781 200.46313477 C204.67407545 215.82073667 205.37493497 231.02143306 205.3125 246.625 C205.31034485 247.59555328 205.3081897 248.56610657 205.30596924 249.56607056 C205.25493771 263.89309899 204.91209434 277.92356913 202 292 C201.80132324 292.97775391 201.60264648 293.95550781 201.39794922 294.96289062 C192.8820582 335.66055705 175.89118368 374.05445151 149 406 C148.57138672 406.51739746 148.14277344 407.03479492 147.70117188 407.56787109 C137.18164284 420.2564129 126.03816903 431.86528878 113 442 C111.52660156 443.18142578 111.52660156 443.18142578 110.0234375 444.38671875 C70.29759115 476.0035908 18.37047678 496.93437939 -32.79296875 497.203125 C-33.69337387 497.21018463 -34.59377899 497.21724426 -35.52146912 497.22451782 C-72.98691069 497.45161655 -72.98691069 497.45161655 -90 494 C-91.01545898 493.80132324 -92.03091797 493.60264648 -93.07714844 493.39794922 C-142.9758035 483.41672289 -186.53871388 459.11419427 -223 424 C-223.7940625 423.2471875 -224.588125 422.494375 -225.40625 421.71875 C-230.75597303 416.53885945 -235.38660506 410.83594459 -240 405 C-240.7940625 404.01128906 -241.588125 403.02257812 -242.40625 402.00390625 C-265.32205725 372.96029611 -281.22147176 339.14314413 -289.6875 303.1875 C-289.87787842 302.39625732 -290.06825684 301.60501465 -290.2644043 300.78979492 C-294.22851721 283.10947098 -295.555362 265.38707345 -295.4375 247.3125 C-295.43445862 246.31385925 -295.43141724 245.31521851 -295.42828369 244.28631592 C-295.35621635 228.21658083 -294.43972751 212.74786814 -291 197 C-290.78037598 195.97374512 -290.56075195 194.94749023 -290.33447266 193.89013672 C-283.36781245 162.14326833 -271.07501623 131.47570558 -252 105 C-251.56606934 104.39768555 -251.13213867 103.79537109 -250.68505859 103.17480469 C-236.89375344 84.14611537 -221.64599345 66.44072684 -203 52 C-202.01902344 51.21367188 -201.03804688 50.42734375 -200.02734375 49.6171875 C-167.82849535 23.99964218 -130.2558129 7.85095605 -90 0 C-89.17274414 -0.16661133 -88.34548828 -0.33322266 -87.49316406 -0.50488281 C-59.91781494 -5.80488028 -27.50199116 -5.57960557 0 0 Z " fill="#000000" transform="translate(345,53)"/>
</svg>
